<?xml version="1.0" encoding="utf-8" ?><svg xmlns="http://www.w3.org/2000/svg" xmlns:xlink="http://www.w3.org/1999/xlink" width="2384" height="2384" viewBox="0 0 2384 2384"><path fill="#1A304F" transform="matrix(2.32812 0 0 2.32812 0 6.10352e-05)" d="M492.918 193.281C511.503 192.271 533.724 192.992 552.781 193.007L590.993 192.992C616.827 192.972 638.812 192.873 663.777 202.107C697.376 214.534 725.97 238.697 744.177 269.547C749.683 278.877 752.182 285.692 756.608 295.037C769.377 299.906 778.072 305.425 787.846 315.153C805.081 332.398 814.622 355.872 814.305 380.25C814.164 404.006 804.567 426.726 787.636 443.39C776.482 454.219 762.658 461.901 747.572 465.656C735.355 468.597 723.304 468.131 710.839 468.202C700.5 468.301 690.159 468.346 679.819 468.336C649.629 468.348 618.68 468.603 588.509 468.156C588.643 474.971 588.449 481.789 587.927 488.585C585.019 526.112 567.213 560.914 538.481 585.229C504.599 614.062 467.879 621.759 424.882 618.381C425.365 605.634 425.034 590.95 425.039 578.06L425.093 503.257C420.472 504.616 413.38 508.923 409.108 511.336C387.838 523.35 368.594 537.651 350.735 554.347C291.422 609.438 256.758 686.068 254.548 766.989C274.127 767.121 286.425 767.718 305.811 764.239C338.151 756.348 359.18 739.713 376.874 711.744C369.895 704.085 360.451 695.128 352.988 687.68L310.468 645.149C314.12 638.126 330.14 612.808 335.067 607.398C339.219 610.777 346.978 619.189 351.186 623.502L378.325 650.994L412.224 684.835C418 690.56 425.411 697.391 430.677 703.292C424.372 722.092 409.244 746.188 395.657 760.554C335.741 823.902 284.115 809.21 210.054 811.341L210.028 613.399L210.031 527.199C210.034 503.719 209.59 481.034 212.15 457.618C227.842 314.05 347.632 199.315 492.918 193.281ZM254.542 605.68C298.943 530.791 354.375 482.24 435.869 450.476C444.291 429.212 462.528 402.473 481.916 389.942C490.712 401.828 499.991 413.511 508.673 425.295C491.69 439.683 482.15 451.447 474.694 472.87C468.571 491.823 469.934 510.2 469.945 529.881L469.982 571.912C494.626 566.444 515.308 550.786 528.718 529.573C535.507 519.039 540.105 507.245 542.238 494.895C544.628 481.196 544.007 463.567 543.829 449.335C543.377 413.25 544.443 376.923 543.804 340.87C557.801 341.127 574.458 341.285 588.496 340.946C588.236 367.123 587.465 398.078 588.233 424.02C630.432 423.486 672.755 424.181 714.975 423.971C733.024 423.881 743.726 424.018 757.279 410.687C781.289 387.07 769.738 345.349 738.402 335.56C733.543 334.042 725.874 333.709 721.713 330.431C718.549 326.842 715.841 315.702 713.995 310.758C712.643 307.188 711.15 303.673 709.519 300.221C705.754 292.033 700.966 284.355 695.271 277.371C687.603 268.038 678.451 260.031 668.182 253.672C643.774 238.496 625.483 237.273 598.187 237.045L563.301 237.017C540.669 237.057 517.953 237.085 495.315 237.184C495.162 237.197 495.009 237.21 494.855 237.223C482.895 238.043 471.773 239.015 460.007 241.283C403.981 252.528 353.317 282.164 316.055 325.487C283.212 363.174 261.27 415.056 256.02 464.667C253.846 485.219 254.318 508.668 254.323 529.504L254.542 605.68Z"/><path fill="#1A304F" transform="matrix(2.32812 0 0 2.32812 0 6.10352e-05)" d="M668.354 312.157C671.24 311.755 675.163 312.601 677.784 313.777C693.103 320.652 687.37 338.17 682.33 349.379C675.027 348.942 673.236 349.114 666.47 346.616C664.751 345.698 662.419 343.894 660.881 342.649C653.614 336.77 650.654 337.045 641.904 336.932C647.221 327.63 657.111 313.865 668.354 312.157Z"/><path fill="#1A304F" transform="matrix(2.32812 0 0 2.32812 0 6.10352e-05)" d="M611.374 491.738C620.84 492.139 631.786 491.888 641.352 491.88L692.148 491.848C691.108 516.548 682.188 539.603 665.353 557.826C648.126 575.066 634.936 581.537 611.471 585.843C611.024 554.839 611.393 522.832 611.374 491.738Z"/></svg>